<svg width="17" height="20" viewBox="0 0 17 20" fill="none" xmlns="http://www.w3.org/2000/svg">
<path d="M12.18 0.437648C12.18 0.437648 8.69032 -0.588799 8.69032 3.92734C13.2065 3.92734 12.18 0.437648 12.18 0.437648ZM13.1768 10.6568C13.1768 10.1265 13.2554 9.67474 13.3813 9.29083C13.8942 7.72622 15.1956 7.29212 15.1956 7.29212C15.1956 7.29212 14.0743 5.04863 10.7096 5.49762C10.7096 5.49762 9.58786 5.49762 8.01758 6.39465C8.01758 6.39465 5.32559 4.60016 3.08257 5.94614C0.83956 7.29212 0.390575 9.75939 0.390575 9.75939C0.390575 9.75939 -0.345286 15.6488 3.68324 18.7587C4.1023 19.0823 4.57289 19.3757 5.10133 19.6294C5.10133 19.6294 8.69032 18.0592 11.6066 19.6294C11.6066 19.6294 14.5228 18.9566 15.8688 14.6944C15.8688 14.6944 13.1768 13.3484 13.1768 10.6568Z" fill="#E7ECED"/>
<path d="M5.09505 20L4.95571 19.9334C3.62153 19.293 2.53278 18.353 1.71973 17.1394C1.07313 16.1744 0.600273 15.0369 0.314374 13.7588C-0.169611 11.5954 0.0469125 9.79338 0.0564047 9.71771L0.0592172 9.69916C0.0786703 9.59228 0.5625 7.06556 2.90938 5.65723C3.90942 5.05719 5.14638 4.94833 6.48654 5.34243C7.1956 5.55095 7.75455 5.84618 8.02595 6.0045C9.45576 5.22926 10.5055 5.16618 10.6844 5.16114C12.5214 4.92075 13.7248 5.4586 14.4116 5.95313C15.1711 6.50013 15.4843 7.11564 15.4973 7.14157L15.671 7.48915L15.3023 7.612C15.2309 7.63661 13.5141 8.25556 13.5141 10.657C13.5141 13.1118 15.9947 14.3805 16.0198 14.3931L16.2771 14.5217L16.1905 14.796C15.4691 17.0802 14.297 18.3571 13.4407 19.026C12.4953 19.7645 11.7153 19.9505 11.6826 19.958L11.5589 19.9866L11.4471 19.9263C8.71385 18.4546 5.27095 19.9234 5.23649 19.9385L5.09505 20ZM8.61232 18.5957C9.73361 18.5957 10.7619 18.8222 11.6421 19.2677C11.8696 19.1922 12.421 18.9741 13.0572 18.47C13.7954 17.885 14.7971 16.7883 15.4626 14.8512C15.1905 14.6853 14.7382 14.3769 14.2848 13.9235C13.3396 12.9784 12.84 11.8489 12.84 10.6571C12.84 9.15107 13.4426 8.23232 13.9481 7.72685C14.218 7.457 14.4897 7.27306 14.7004 7.15439C14.5549 6.9672 14.323 6.71521 13.9889 6.47974C13.1346 5.87747 12.0463 5.6595 10.7544 5.83184L10.7322 5.83481H10.7099C10.3485 5.83778 9.35377 6.01985 8.18506 6.68743L8.0042 6.79075L7.83123 6.67548C7.80603 6.65876 5.28607 5.01723 3.25629 6.23532C1.23344 7.44923 0.755859 9.65377 0.724219 9.81115C0.707969 9.95576 0.531796 11.659 0.976758 13.6315C1.24578 14.8241 1.68641 15.8814 2.28633 16.7739C3.00356 17.8409 3.9545 18.6768 5.11466 19.2604C5.42681 19.1388 6.20357 18.8641 7.20888 18.7077C7.68927 18.6329 8.15849 18.5957 8.61232 18.5957ZM8.69056 4.26454H8.35349V3.92746C8.35349 2.31363 8.78373 1.17347 9.63225 0.53859C10.7719 -0.314185 12.2145 0.0965577 12.2753 0.114448L12.4517 0.166323L12.5036 0.34273C12.5215 0.40359 12.9322 1.84621 12.0795 2.98582C11.4446 3.83426 10.3044 4.26454 8.69056 4.26454ZM11.3719 0.6757C10.9693 0.6757 10.4623 0.757536 10.0319 1.08148C9.42221 1.54043 9.08744 2.38109 9.03494 3.58305C10.2398 3.53043 11.0815 3.1943 11.5397 2.58188C12.0356 1.9191 11.9631 1.08754 11.8981 0.721051C11.7243 0.691043 11.5482 0.675871 11.3719 0.6757Z" fill="#D3D1D9"/>
</svg>
