<svg width="20" height="20" viewBox="0 0 20 20" fill="none" xmlns="http://www.w3.org/2000/svg">
<g clip-path="url(#clip0_5_954)">
<path d="M19.2 9.60147C19.2 4.29956 14.9019 0.00146484 9.6 0.00146484C4.2981 0.00146484 0 4.29956 0 9.60147C0 14.3931 3.5106 18.3647 8.1 19.0848V12.3765H5.6625V9.60147H8.1V7.48647C8.1 5.08047 9.53325 3.75147 11.7261 3.75147C12.7764 3.75147 13.875 3.93897 13.875 3.93897V6.30147H12.6645C11.4719 6.30147 11.1 7.04149 11.1 7.80071V9.60147H13.7625L13.3369 12.3765H11.1V19.0848C15.6894 18.3647 19.2 14.3931 19.2 9.60147Z" fill="#1877F2"/>
<path d="M13.3365 12.3765L13.7621 9.60146H11.0996V7.80071C11.0996 7.04141 11.4715 6.30146 12.6641 6.30146H13.8746V3.93896C13.8746 3.93896 12.776 3.75146 11.7256 3.75146C9.53286 3.75146 8.09961 5.08046 8.09961 7.48646V9.60146H5.66211V12.3765H8.09961V19.0848C8.59582 19.1626 9.09734 19.2016 9.59961 19.2015C10.1019 19.2016 10.6034 19.1626 11.0996 19.0848V12.3765H13.3365Z" fill="#FEFEFE"/>
</g>
<defs>
<clipPath id="clip0_5_954">
<rect width="19.2" height="19.2" fill="white"/>
</clipPath>
</defs>
</svg>
