<svg width="20" height="20" viewBox="0 0 20 20" fill="none" xmlns="http://www.w3.org/2000/svg">
<path d="M18.1726 8.36775H17.5013V8.33317H10.0013V11.6665H14.7109C14.0238 13.6069 12.1776 14.9998 10.0013 14.9998C7.24005 14.9998 5.0013 12.7611 5.0013 9.99984C5.0013 7.23859 7.24005 4.99984 10.0013 4.99984C11.2759 4.99984 12.4355 5.48067 13.3184 6.26609L15.6755 3.909C14.1871 2.52192 12.1963 1.6665 10.0013 1.6665C5.39922 1.6665 1.66797 5.39775 1.66797 9.99984C1.66797 14.6019 5.39922 18.3332 10.0013 18.3332C14.6034 18.3332 18.3346 14.6019 18.3346 9.99984C18.3346 9.44109 18.2771 8.89567 18.1726 8.36775Z" fill="#FFC107"/>
<path d="M2.62891 6.12109L5.36682 8.129C6.10766 6.29484 7.90182 4.99984 10.0014 4.99984C11.276 4.99984 12.4356 5.48067 13.3185 6.26609L15.6756 3.909C14.1872 2.52192 12.1964 1.6665 10.0014 1.6665C6.80057 1.6665 4.02474 3.47359 2.62891 6.12109Z" fill="#FF3D00"/>
<path d="M10.0008 18.3302C12.1533 18.3302 14.1091 17.5065 15.5879 16.1669L13.0087 13.9844C12.1441 14.6423 11.0873 14.998 10.0008 14.9969C7.83328 14.9969 5.99286 13.6148 5.29953 11.686L2.58203 13.7798C3.9612 16.4785 6.76203 18.3302 10.0008 18.3302Z" fill="#4CAF50"/>
<path d="M18.1712 8.36808H17.5V8.3335H10V11.6668H14.7096C14.3809 12.5903 13.7889 13.3973 13.0067 13.9881L13.0079 13.9872L15.5871 16.1697C15.4046 16.3356 18.3333 14.1668 18.3333 10.0002C18.3333 9.44141 18.2758 8.896 18.1712 8.36808Z" fill="#1976D2"/>
</svg>
